<svg width="18" height="6" viewBox="0 0 18 6" fill="none" xmlns="http://www.w3.org/2000/svg">
<path d="M16.2692 2.52632H12.4615V1.89474C12.4615 0.848289 11.5317 0 10.3846 0L7.61539 0C6.46832 0 5.53846 0.848289 5.53846 1.89474V2.52632L1.73077 2.52632C0.774909 2.52632 0 3.23325 0 4.10526L0 5.36842C0 5.71725 0.309938 6 0.692308 6L17.3077 6C17.6901 6 18 5.71725 18 5.36842V4.10526C18 3.23325 17.2251 2.52632 16.2692 2.52632ZM6.92308 1.89474C6.92308 1.54658 7.23375 1.26316 7.61539 1.26316L10.3846 1.26316C10.7663 1.26316 11.0769 1.54658 11.0769 1.89474V2.52632H6.92308V1.89474Z" fill="red"/>
</svg>
