<svg width="17" height="14" viewBox="0 0 17 14" fill="none" xmlns="http://www.w3.org/2000/svg">
<path d="M0.245632 0.0003736C0.118544 0.000160265 0.0171072 0.0999907 0.0229601 0.219532L0.591021 11.8317C0.643521 12.9064 1.57957 13.7495 2.7218 13.7514L13.5378 13.7696C14.68 13.7715 15.6189 12.9315 15.675 11.857L16.2821 0.246825C16.2884 0.127304 16.1873 0.027134 16.0602 0.0269206L0.245632 0.0003736ZM10.999 1.69488C10.9996 1.32438 11.3188 1.02483 11.7123 1.02549C12.1058 1.02615 12.4241 1.32677 12.4234 1.69727L12.4088 10.4148C12.4081 10.7853 12.0889 11.0848 11.6954 11.0842C11.3019 11.0835 10.9837 10.7829 10.9843 10.4124L10.999 1.69488ZM7.43787 1.6889C7.43849 1.3184 7.75771 1.01886 8.15122 1.01952C8.54472 1.02018 8.86294 1.3208 8.86231 1.69129L8.84765 10.4088C8.84703 10.7793 8.52781 11.0789 8.1343 11.0782C7.7408 11.0775 7.42259 10.7769 7.42321 10.4064L7.43787 1.6889ZM3.87675 1.68292C3.87738 1.31243 4.1966 1.01288 4.5901 1.01354C4.98361 1.0142 5.30182 1.31482 5.3012 1.68531L5.28654 10.4028C5.28592 10.7733 4.96669 11.0729 4.57319 11.0722C4.17969 11.0716 3.86147 10.7709 3.86209 10.4005L3.87675 1.68292Z" fill="red"/>
</svg>
